<svg id="jdenticon" data-jdenticon-value="github.com/bengarrr" width="100%" height="100%" data-astro-cid-b3uuc2c6="" viewBox="0 0 100 100" preserveAspectRatio="xMidYMid meet"><path fill="#9a84d6" d="M32.5 18.5a7,7 0 1,1 14,0a7,7 0 1,1 -14,0M53.5 18.5a7,7 0 1,1 14,0a7,7 0 1,1 -14,0M53.5 81.5a7,7 0 1,1 14,0a7,7 0 1,1 -14,0M32.5 81.5a7,7 0 1,1 14,0a7,7 0 1,1 -14,0M11.5 39.5a7,7 0 1,1 14,0a7,7 0 1,1 -14,0M74.5 39.5a7,7 0 1,1 14,0a7,7 0 1,1 -14,0M74.5 60.5a7,7 0 1,1 14,0a7,7 0 1,1 -14,0M11.5 60.5a7,7 0 1,1 14,0a7,7 0 1,1 -14,0M29 29L50 29L50 50L29 50ZM36 48L48 48L48 36L36 36ZM71 29L71 50L50 50L50 29ZM52 36L52 48L64 48L64 36ZM71 71L50 71L50 50L71 50ZM64 52L52 52L52 64L64 64ZM29 71L29 50L50 50L50 71ZM48 64L48 52L36 52L36 64Z"></path><path fill="#5b5b5b" d="M29 29L8 29L8 8ZM71 29L71 8L92 8ZM71 71L92 71L92 92ZM29 71L29 92L8 92Z"></path></svg>